<?xml version="1.0" encoding="utf-8"?>
<!-- Generator: Adobe Illustrator 26.2.1, SVG Export Plug-In . SVG Version: 6.00 Build 0)  -->
<svg version="1.1" id="Ebene_1" xmlns="http://www.w3.org/2000/svg" xmlns:xlink="http://www.w3.org/1999/xlink" x="0px" y="0px"
	 viewBox="0 0 512 512" style="enable-background:new 0 0 512 512;" xml:space="preserve">
<style type="text/css">
	.st0{fill:#9FA4A8;}
</style>
<path class="st0" d="M448,96h-64V48c0-26.5-21.5-48-48-48H176c-26.5,0-48,21.5-48,48v48H64c-35.3,0-64,28.7-64,64v256
	c0,35.4,28.6,64,64,64h384c35.4,0,64-28.6,64-64V160C512,124.7,483.3,96,448,96z M160,48c0-8.8,7.2-16,16-16h160c8.8,0,16,7.2,16,16
	v48H160V48z M480,416c0,17.6-14.4,32-32,32H64c-17.6,0-32-14.4-32-32V288h144v64c0,8.8,7.2,16,16,16h128c8.8,0,16-7.2,16-16v-64h144
	V416z M208,336v-48h96v48H208z M480,256H32v-96c0-17.6,14.4-32,32-32h384c17.6,0,32,14.4,32,32V256z"/>
</svg>
